<svg id="Layer_1" data-name="Layer 1" xmlns="http://www.w3.org/2000/svg" viewBox="0 0 126 126"><defs><style>.cls-1{fill:#549f45;}.cls-2{fill:#f1f2f2;stroke:#f1f2f2;stroke-miterlimit:10;}</style></defs><rect class="cls-1" x="0.76" width="124.48" height="126" rx="14.45"/><path class="cls-2" d="M49.3,8c3.55,6.08,6.64,11.2,9.48,16.45.44.82-.29,2.26-.47,3.41-.93-.54-2.11-.89-2.74-1.68a68.66,68.66,0,0,1-3.81-6V60.87c7.39,0,14.82.2,22.23-.08,3.69-.14,4.79,1,4.71,4.67-.23,11.6-.08,23.2-.08,34.81v4.28l1,.38a56.27,56.27,0,0,1,3.6-5.27c.61-.73,1.85-.93,2.81-1.37.13,1.1.74,2.45.31,3.24-2.94,5.35-6.09,10.58-9.55,16.49-3.49-6-6.7-11.46-9.75-17-.34-.62.29-1.78.47-2.7.89.27,2.12.25,2.59.85,1.36,1.73,2.42,3.71,4.22,6.58A28.65,28.65,0,0,0,75,102c0-10.94-.05-21.87,0-32.81,0-3-.79-4.3-4.09-4.18-6.66.24-13.34-.06-20,.13-3,.09-3.92-.84-3.88-3.85.15-11.73.06-23.47.06-35.2V21.76l-.91-.35a45.8,45.8,0,0,1-3.33,5c-.62.73-1.87.91-2.84,1.34-.16-1-.81-2.36-.41-3.09C42.59,19.3,45.73,14.08,49.3,8Z"/></svg>