<?xml version="1.0" encoding="utf-8"?>
<!-- Generator: Adobe Illustrator 25.4.1, SVG Export Plug-In . SVG Version: 6.00 Build 0)  -->
<svg version="1.1" id="Layer_1" xmlns="http://www.w3.org/2000/svg" xmlns:xlink="http://www.w3.org/1999/xlink" x="0px" y="0px"
	 viewBox="0 0 656.5 199.8" style="enable-background:new 0 0 656.5 199.8;" xml:space="preserve">
<style type="text/css">
	.st0{fill:#FFFFFF;}
	.st1{font-family:'BerlinSansFB-Reg';}
	.st2{font-size:106.5183px;}
	.st3{fill:#54A045;}
	.st4{font-family:'Garamond-Bold';}
	.st5{font-size:29.6399px;}
</style>
<text transform="matrix(1 0 0 1 65.6806 114.8978)" class="st0 st1 st2">Procure</text>
<text transform="matrix(1 0 0 1 410.4575 114.8978)" class="st3 st1 st2">Grids</text>
<path class="st3" d="M32.9,34.4c3.2,5.4,5.9,10,8.4,14.6c0.4,0.7-0.3,2-0.4,3c-0.8-0.5-1.9-0.8-2.4-1.5c-1.2-1.7-2.4-3.5-3.4-5.3
	v36.2c6.6,0,13.2,0.2,19.8-0.1c3.3-0.1,4.3,0.9,4.2,4.2c-0.2,10.3-0.1,20.6-0.1,31v3.8l0.9,0.3c1-1.6,2-3.2,3.2-4.7
	c0.5-0.7,1.7-0.8,2.5-1.2c0.1,0.9,0.7,2.2,0.3,2.9c-2.6,4.8-5.4,9.4-8.5,14.7c-3.1-5.4-6-10.2-8.7-15.1c-0.3-0.5,0.3-1.6,0.4-2.4
	c0.8,0.2,1.9,0.2,2.3,0.8c1.2,1.5,2.2,3.3,3.8,5.9c0.3-1.1,0.5-2.2,0.6-3.4c0-9.7,0-19.5,0-29.2c0-2.7-0.7-3.8-3.6-3.7
	c-5.9,0.2-11.9-0.1-17.8,0.1c-2.6,0.1-3.5-0.7-3.4-3.4c0.1-10.4,0.1-20.9,0-31.3v-3.8l-0.8-0.3c-0.9,1.5-1.9,3-3,4.4
	c-0.5,0.6-1.7,0.8-2.5,1.2c-0.1-0.9-0.7-2.1-0.4-2.8C27,44.5,29.8,39.8,32.9,34.4z"/>
<path class="st0" d="M616.3,125.6c-2.1-1.1-4.1-2.4-6-3.8c-0.9-0.7-1.1-2.2-1.6-3.3c1.2-0.3,2.8-1.2,3.6-0.7
	c6.5,3.5,12.8,7.3,19.8,11.3c-7.2,4.1-13.7,8-20.4,11.6c-0.6,0.4-1.9-0.5-2.9-0.8c0.3-1.1,0.3-2.7,1.1-3.3c2-1.6,4.4-2.8,6.5-5
	c-1.5-0.1-3-0.2-4.5-0.2H78.1c-1.6,0-3.7,0.7-3.6-2.3c0-1.9,0.4-2.9,2.5-2.8c1,0.1,2.1,0,3.1,0h536L616.3,125.6z"/>
<text transform="matrix(1 0 0 1 70.9047 163.6556)" class="st0 st4 st5">data, p</text>
<text transform="matrix(1 0 0 1 156.4247 163.6556)" class="st0 st4 st5">r</text>
<text transform="matrix(1 0 0 1 166.9008 163.6556)" class="st0 st4 st5">ocu</text>
<text transform="matrix(1 0 0 1 212.6015 163.6556)" class="st0 st4 st5">r</text>
<text transform="matrix(1 0 0 1 223.0869 163.6556)" class="st0 st4 st5">e, const</text>
<text transform="matrix(1 0 0 1 319.4164 163.6556)" class="st0 st4 st5">r</text>
<text transform="matrix(1 0 0 1 330.5869 163.6556)" class="st0 st4 st5">uct</text>
</svg>
